<?xml version="1.0" encoding="UTF-8"?>
<svg width="195px" height="34px" viewBox="0 0 195 34" version="1.1" xmlns="http://www.w3.org/2000/svg" xmlns:xlink="http://www.w3.org/1999/xlink">
    <!-- Generator: Sketch 42 (36781) - http://www.bohemiancoding.com/sketch -->
    <title>logo</title>
    <desc>Created with Sketch.</desc>
    <defs>
        <polygon id="path-1" points="0.06 25.121 0.06 0.786 15.932 0.786 15.932 25.121 0.06 25.121"></polygon>
        <polygon id="path-3" points="25.224 0.04 0.71 0.04 0.71 25.596 25.224 25.596 25.224 0.04"></polygon>
    </defs>
    <g id="Page-1" stroke="none" stroke-width="1" fill="none" fill-rule="evenodd">
        <g id="logo">
            <g id="Group-3" transform="translate(0.000000, 1.000000)">
                <mask id="mask-2" fill="white">
                    <use xlink:href="#path-1"></use>
                </mask>
                <g id="Clip-2"></g>
                <path d="M7.983,0.786 C8.964,0.786 9.897,0.926 10.785,1.206 C11.671,1.486 12.313,1.766 12.71,2.046 L13.306,2.466 L14.321,1.101 L14.496,1.101 L15.057,7.824 L14.811,7.824 C14.578,6.167 13.889,4.614 12.746,3.167 C11.602,1.719 10.014,0.996 7.983,0.996 C6.653,0.996 5.59,1.393 4.797,2.186 C4.003,2.98 3.606,3.96 3.606,5.127 C3.606,6.318 4.032,7.322 4.884,8.139 C5.736,8.956 6.763,9.622 7.966,10.135 C9.168,10.648 10.37,11.197 11.572,11.78 C12.774,12.364 13.801,13.187 14.654,14.249 C15.506,15.312 15.932,16.625 15.932,18.189 C15.932,20.383 15.138,22.087 13.551,23.301 C11.963,24.515 10.026,25.121 7.738,25.121 C6.594,25.121 5.509,24.964 4.481,24.648 C3.455,24.334 2.708,24.013 2.241,23.685 L1.576,23.231 L0.49,24.596 L0.35,24.596 L0,17.312 L0.21,17.312 C0.396,19.438 1.132,21.234 2.416,22.705 C3.699,24.176 5.474,24.911 7.738,24.911 C9.489,24.911 10.837,24.456 11.783,23.545 C12.728,22.635 13.201,21.41 13.201,19.869 C13.201,18.772 12.903,17.815 12.308,16.998 C11.712,16.181 10.971,15.551 10.084,15.107 C9.197,14.664 8.24,14.191 7.213,13.689 C6.186,13.187 5.229,12.697 4.342,12.218 C3.455,11.74 2.713,11.051 2.118,10.152 C1.523,9.254 1.225,8.197 1.225,6.983 C1.225,5.163 1.867,3.674 3.151,2.519 C4.435,1.363 6.045,0.786 7.983,0.786" id="Fill-1" fill="#0A0A08" mask="url(#mask-2)"></path>
            </g>
            <path d="M24.493,25.842 C26.291,25.842 27.557,25.105 28.292,23.635 C29.028,22.164 29.396,20.041 29.396,17.262 C29.396,14.695 29.074,12.681 28.433,11.222 C27.79,9.764 26.676,9.034 25.088,9.034 C23.758,9.034 22.648,9.512 21.762,10.469 C20.874,11.427 20.431,12.92 20.431,14.951 L20.431,20.624 C20.431,22.375 20.799,23.683 21.534,24.545 C22.27,25.41 23.255,25.842 24.493,25.842 Z M25.648,8.684 C27.796,8.684 29.512,9.472 30.796,11.047 C32.08,12.623 32.722,14.706 32.722,17.297 C32.722,19.818 31.975,21.92 30.481,23.6 C28.987,25.281 27.131,26.121 24.914,26.121 C23.139,26.121 21.645,25.328 20.431,23.74 L20.431,30.428 C20.431,31.875 20.565,32.779 20.834,33.143 C21.102,33.504 21.855,33.72 23.093,33.79 L23.093,34 L14.969,34 L14.969,33.79 C16.089,33.696 16.784,33.463 17.052,33.09 C17.32,32.716 17.455,31.84 17.455,30.463 L17.455,13.061 C17.455,11.894 17.297,11.135 16.982,10.785 C16.667,10.435 15.972,10.259 14.899,10.259 L14.899,10.049 C15.552,10.026 16.34,9.897 17.262,9.664 C18.185,9.431 18.949,9.209 19.556,8.999 L20.431,8.684 L20.431,11.59 C21.692,9.652 23.431,8.684 25.648,8.684 L25.648,8.684 Z" id="Fill-4" fill="#0A0A08"></path>
            <path d="M38.818,25.456 C40.055,25.456 41.07,25.036 41.864,24.195 C42.657,23.355 43.055,22.258 43.055,20.904 L43.055,16.982 L39.028,18.208 C36.81,18.861 35.701,20.216 35.701,22.27 C35.701,24.395 36.74,25.456 38.818,25.456 Z M48.728,23.846 L48.902,23.881 C48.879,23.951 48.855,24.032 48.832,24.125 C48.809,24.219 48.721,24.395 48.57,24.65 C48.417,24.908 48.249,25.129 48.062,25.316 C47.875,25.503 47.601,25.678 47.239,25.842 C46.877,26.004 46.486,26.086 46.066,26.086 C44.245,26.086 43.265,25.013 43.125,22.865 C42.634,23.916 41.899,24.721 40.919,25.281 C39.938,25.842 38.841,26.121 37.627,26.121 C36.04,26.121 34.803,25.783 33.915,25.105 C33.028,24.43 32.585,23.483 32.585,22.27 C32.585,21.242 32.988,20.455 33.793,19.906 C34.599,19.357 35.876,18.826 37.627,18.312 L43.055,16.737 L43.055,14.076 C43.055,12.302 42.786,11.012 42.25,10.206 C41.712,9.401 40.779,8.999 39.448,8.999 C37.627,8.999 36.565,9.956 36.262,11.87 C36.192,12.29 36.133,12.594 36.086,12.78 C36.04,12.967 35.958,13.201 35.842,13.481 C35.725,13.761 35.573,13.96 35.386,14.076 C35.199,14.193 34.966,14.251 34.686,14.251 C34.289,14.251 33.968,14.105 33.723,13.813 C33.478,13.521 33.356,13.178 33.356,12.78 C33.356,11.753 33.903,10.82 35.001,9.979 C36.098,9.139 37.791,8.719 40.078,8.719 C44.047,8.719 46.031,10.306 46.031,13.481 L46.031,23.074 C46.031,23.775 46.124,24.266 46.311,24.545 C46.498,24.826 46.824,24.966 47.292,24.966 C47.618,24.966 47.904,24.873 48.149,24.685 C48.394,24.499 48.552,24.312 48.622,24.125 L48.728,23.846 L48.728,23.846 Z" id="Fill-5" fill="#0A0A08"></path>
            <path d="M53.212,8.648 L53.212,13.235 C53.585,11.929 54.152,10.843 54.911,9.979 C55.669,9.116 56.609,8.684 57.729,8.684 C58.312,8.684 58.82,8.83 59.253,9.121 C59.685,9.413 59.9,9.828 59.9,10.364 C59.9,10.808 59.783,11.164 59.55,11.432 C59.316,11.701 59.013,11.835 58.64,11.835 C58.103,11.835 57.625,11.497 57.204,10.82 C56.784,10.143 56.329,9.804 55.839,9.804 C55.231,9.804 54.683,10.324 54.193,11.362 C53.703,12.401 53.458,13.901 53.458,15.862 L53.458,21.885 C53.458,23.402 53.592,24.354 53.86,24.738 C54.128,25.123 54.881,25.352 56.119,25.421 L56.119,25.596 L47.995,25.596 L47.995,25.421 C49.139,25.328 49.839,25.083 50.096,24.685 C50.353,24.289 50.481,23.367 50.481,21.92 L50.481,13.061 C50.481,11.87 50.329,11.106 50.026,10.767 C49.722,10.429 49.022,10.259 47.925,10.259 L47.925,10.049 C48.579,10.026 49.343,9.897 50.219,9.664 C51.094,9.431 51.812,9.209 52.372,8.999 L53.212,8.648" id="Fill-6" fill="#0A0A08"></path>
            <path d="M64.07,5.077 L64.07,9.209 L68.727,9.209 L68.727,9.454 L64.07,9.454 L64.07,21.989 C64.07,24.113 64.84,25.176 66.381,25.176 C66.918,25.176 67.426,25.053 67.904,24.809 C68.383,24.562 68.727,24.312 68.937,24.056 L69.253,23.705 L69.357,23.881 C69.24,24.044 69.071,24.248 68.85,24.493 C68.628,24.738 68.138,25.07 67.379,25.491 C66.62,25.911 65.821,26.121 64.98,26.121 C62.39,26.121 61.094,24.803 61.094,22.164 L61.094,9.454 L59.273,9.454 L59.273,9.279 C60.184,9.069 61.094,8.561 62.004,7.755 C62.915,6.95 63.545,6.058 63.895,5.077 L64.07,5.077" id="Fill-7" fill="#0A0A08"></path>
            <path d="M75.198,25.456 C76.436,25.456 77.45,25.036 78.244,24.195 C79.038,23.355 79.436,22.258 79.436,20.904 L79.436,16.982 L75.408,18.208 C73.19,18.861 72.082,20.216 72.082,22.27 C72.082,24.395 73.12,25.456 75.198,25.456 Z M85.107,23.846 L85.283,23.881 C85.26,23.951 85.235,24.032 85.213,24.125 C85.189,24.219 85.102,24.395 84.95,24.65 C84.798,24.908 84.629,25.129 84.442,25.316 C84.256,25.503 83.98,25.678 83.619,25.842 C83.257,26.004 82.867,26.086 82.446,26.086 C80.626,26.086 79.646,25.013 79.505,22.865 C79.015,23.916 78.279,24.721 77.299,25.281 C76.318,25.842 75.221,26.121 74.008,26.121 C72.42,26.121 71.183,25.783 70.296,25.105 C69.408,24.43 68.966,23.483 68.966,22.27 C68.966,21.242 69.368,20.455 70.174,19.906 C70.979,19.357 72.257,18.826 74.008,18.312 L79.436,16.737 L79.436,14.076 C79.436,12.302 79.167,11.012 78.63,10.206 C78.093,9.401 77.159,8.999 75.828,8.999 C74.008,8.999 72.945,9.956 72.642,11.87 C72.572,12.29 72.514,12.594 72.467,12.78 C72.42,12.967 72.339,13.201 72.222,13.481 C72.104,13.761 71.953,13.96 71.767,14.076 C71.579,14.193 71.347,14.251 71.066,14.251 C70.669,14.251 70.349,14.105 70.104,13.813 C69.858,13.521 69.736,13.178 69.736,12.78 C69.736,11.753 70.284,10.82 71.382,9.979 C72.479,9.139 74.171,8.719 76.459,8.719 C80.427,8.719 82.411,10.306 82.411,13.481 L82.411,23.074 C82.411,23.775 82.504,24.266 82.691,24.545 C82.878,24.826 83.205,24.966 83.672,24.966 C83.999,24.966 84.285,24.873 84.53,24.685 C84.775,24.499 84.933,24.312 85.003,24.125 L85.107,23.846 L85.107,23.846 Z" id="Fill-8" fill="#0A0A08"></path>
            <g id="Group-12" transform="translate(90.000000, 0.000000)">
                <mask id="mask-4" fill="white">
                    <use xlink:href="#path-3"></use>
                </mask>
                <g id="Clip-10"></g>
                <path d="M9.533,2.521 L7.047,2.521 L7.047,14.741 L9.394,14.741 C11.284,14.741 12.708,14.175 13.665,13.043 C14.622,11.911 15.101,10.399 15.101,8.508 C15.101,4.517 13.245,2.521 9.533,2.521 Z M9.568,14.986 L7.047,14.986 L7.047,21.92 C7.047,23.438 7.187,24.395 7.468,24.791 C7.748,25.188 8.506,25.386 9.743,25.386 L9.743,25.596 L0.71,25.596 L0.71,25.421 C2.133,25.352 2.985,25.152 3.266,24.826 C3.546,24.499 3.687,23.53 3.687,21.92 L3.687,5.987 C3.687,4.377 3.54,3.408 3.248,3.081 C2.956,2.754 2.11,2.556 0.71,2.486 L0.71,2.311 L9.533,2.311 C12.428,2.311 14.687,2.842 16.309,3.904 C17.931,4.966 18.743,6.478 18.743,8.438 C18.743,10.446 17.867,12.04 16.116,13.218 C14.366,14.397 12.183,14.986 9.568,14.986 L9.568,14.986 Z" id="Fill-9" fill="#0A0A08" mask="url(#mask-4)"></path>
                <path d="M22.772,0 L22.772,21.92 C22.772,23.367 22.9,24.289 23.158,24.685 C23.414,25.083 24.103,25.328 25.224,25.421 L25.224,25.596 L17.555,25.596 L17.555,25.421 C18.605,25.352 19.253,25.123 19.498,24.738 C19.743,24.354 19.866,23.414 19.866,21.92 L19.866,4.481 C19.866,3.245 19.726,2.445 19.445,2.083 C19.166,1.721 18.466,1.541 17.345,1.541 L17.345,1.4 C18.045,1.377 18.845,1.249 19.743,1.015 C20.642,0.782 21.372,0.548 21.932,0.315 L22.772,0" id="Fill-11" fill="#0A0A08" mask="url(#mask-4)"></path>
            </g>
            <path d="M120.443,25.456 C121.681,25.456 122.696,25.036 123.49,24.195 C124.283,23.355 124.681,22.258 124.681,20.904 L124.681,16.982 L120.653,18.208 C118.436,18.861 117.327,20.216 117.327,22.27 C117.327,24.395 118.366,25.456 120.443,25.456 Z M130.354,23.846 L130.528,23.881 C130.505,23.951 130.48,24.032 130.458,24.125 C130.435,24.219 130.347,24.395 130.195,24.65 C130.044,24.908 129.874,25.129 129.688,25.316 C129.501,25.503 129.227,25.678 128.864,25.842 C128.503,26.004 128.112,26.086 127.692,26.086 C125.871,26.086 124.891,25.013 124.75,22.865 C124.26,23.916 123.525,24.721 122.545,25.281 C121.564,25.842 120.467,26.121 119.253,26.121 C117.665,26.121 116.428,25.783 115.541,25.105 C114.653,24.43 114.211,23.483 114.211,22.27 C114.211,21.242 114.613,20.455 115.419,19.906 C116.225,19.357 117.503,18.826 119.253,18.312 L124.681,16.737 L124.681,14.076 C124.681,12.302 124.412,11.012 123.875,10.206 C123.338,9.401 122.404,8.999 121.074,8.999 C119.253,8.999 118.19,9.956 117.888,11.87 C117.817,12.29 117.759,12.594 117.712,12.78 C117.665,12.967 117.584,13.201 117.468,13.481 C117.35,13.761 117.198,13.96 117.013,14.076 C116.825,14.193 116.592,14.251 116.312,14.251 C115.915,14.251 115.594,14.105 115.349,13.813 C115.104,13.521 114.981,13.178 114.981,12.78 C114.981,11.753 115.529,10.82 116.627,9.979 C117.724,9.139 119.416,8.719 121.704,8.719 C125.673,8.719 127.657,10.306 127.657,13.481 L127.657,23.074 C127.657,23.775 127.75,24.266 127.938,24.545 C128.123,24.826 128.45,24.966 128.917,24.966 C129.244,24.966 129.53,24.873 129.775,24.685 C130.021,24.499 130.178,24.312 130.248,24.125 L130.354,23.846 L130.354,23.846 Z" id="Fill-13" fill="#0A0A08"></path>
            <path d="M137.16,8.858 C134.592,8.858 133.134,10.972 132.783,15.197 L140.206,15.197 C140.416,14.636 140.521,13.936 140.521,13.096 C140.521,10.271 139.401,8.858 137.16,8.858 Z M138.105,25.666 C139.506,25.666 140.638,25.334 141.502,24.668 C142.365,24.003 142.973,23.238 143.323,22.375 L143.533,22.375 C143.159,23.332 142.482,24.195 141.502,24.966 C140.521,25.736 139.191,26.121 137.511,26.121 C135.035,26.121 133.058,25.346 131.575,23.793 C130.093,22.24 129.352,20.168 129.352,17.578 C129.352,15.08 130.099,12.973 131.593,11.257 C133.086,9.542 134.942,8.684 137.16,8.684 C139.121,8.684 140.673,9.273 141.817,10.452 C142.961,11.631 143.568,13.306 143.638,15.477 L132.748,15.477 C132.701,16.364 132.678,17.076 132.678,17.612 C132.678,22.982 134.487,25.666 138.105,25.666 L138.105,25.666 Z" id="Fill-14" fill="#0A0A08"></path>
            <path d="M149.044,8.684 C149.744,8.684 150.421,8.771 151.075,8.946 C151.728,9.121 152.195,9.291 152.476,9.454 L152.931,9.699 L153.665,9.069 L153.806,9.069 L154.226,13.375 L154.016,13.375 C153.829,12.185 153.321,11.129 152.493,10.206 C151.664,9.285 150.561,8.824 149.184,8.824 L149.044,8.824 C148.063,8.847 147.293,9.104 146.732,9.594 C146.173,10.084 145.893,10.808 145.893,11.765 C145.893,12.583 146.201,13.288 146.82,13.883 C147.438,14.479 148.186,14.975 149.062,15.372 C149.937,15.769 150.817,16.189 151.705,16.632 C152.592,17.076 153.345,17.683 153.963,18.453 C154.582,19.223 154.892,20.147 154.892,21.219 C154.892,22.713 154.389,23.91 153.386,24.809 C152.382,25.707 151.098,26.156 149.533,26.156 C148.786,26.156 148.039,26.039 147.293,25.807 C146.545,25.573 145.985,25.34 145.612,25.105 L145.087,24.791 L144.177,25.981 L144.036,25.981 L143.687,20.869 L143.896,20.869 C144.27,22.246 144.935,23.442 145.893,24.458 C146.85,25.474 148.063,25.981 149.533,25.981 C150.654,25.981 151.512,25.719 152.107,25.193 C152.703,24.668 153.001,23.916 153.001,22.935 C153.001,22.164 152.696,21.488 152.09,20.904 C151.482,20.32 150.747,19.824 149.884,19.416 C149.021,19.008 148.156,18.57 147.293,18.103 C146.429,17.636 145.693,17 145.087,16.194 C144.479,15.389 144.177,14.438 144.177,13.34 C144.177,11.963 144.649,10.843 145.595,9.979 C146.54,9.116 147.689,8.684 149.044,8.684" id="Fill-15" fill="#0A0A08"></path>
            <path d="M162.809,8.858 C160.24,8.858 158.781,10.972 158.432,15.197 L165.854,15.197 C166.064,14.636 166.169,13.936 166.169,13.096 C166.169,10.271 165.049,8.858 162.809,8.858 Z M163.754,25.666 C165.154,25.666 166.286,25.334 167.15,24.668 C168.014,24.003 168.62,23.238 168.971,22.375 L169.181,22.375 C168.808,23.332 168.131,24.195 167.15,24.966 C166.169,25.736 164.839,26.121 163.158,26.121 C160.684,26.121 158.705,25.346 157.224,23.793 C155.74,22.24 155,20.168 155,17.578 C155,15.08 155.747,12.973 157.241,11.257 C158.734,9.542 160.59,8.684 162.809,8.684 C164.769,8.684 166.321,9.273 167.465,10.452 C168.608,11.631 169.216,13.306 169.286,15.477 L158.396,15.477 C158.35,16.364 158.326,17.076 158.326,17.612 C158.326,22.982 160.135,25.666 163.754,25.666 L163.754,25.666 Z" id="Fill-16" fill="#0A0A08"></path>
            <path d="M184.514,21.92 C184.514,23.367 184.642,24.289 184.898,24.685 C185.155,25.083 185.855,25.328 187,25.421 L187,25.596 L179.262,25.596 L179.262,25.421 C180.312,25.352 180.953,25.123 181.188,24.738 C181.421,24.354 181.538,23.414 181.538,21.92 L181.538,14.636 C181.538,12.769 181.269,11.421 180.732,10.592 C180.195,9.764 179.332,9.349 178.141,9.349 C176.95,9.349 175.935,9.769 175.095,10.609 C174.254,11.45 173.834,12.64 173.834,14.181 L173.834,21.92 C173.834,23.367 173.962,24.289 174.219,24.685 C174.476,25.083 175.165,25.328 176.285,25.421 L176.285,25.596 L168.547,25.596 L168.547,25.421 C169.597,25.352 170.245,25.123 170.49,24.738 C170.735,24.354 170.858,23.414 170.858,21.92 L170.858,13.201 C170.858,12.01 170.7,11.229 170.385,10.854 C170.07,10.481 169.375,10.294 168.302,10.294 L168.302,10.084 C168.955,10.061 169.743,9.933 170.665,9.699 C171.587,9.466 172.352,9.232 172.959,8.999 L173.834,8.684 L173.834,11.94 C175.071,9.769 176.95,8.684 179.472,8.684 C181.105,8.684 182.354,9.098 183.218,9.926 C184.081,10.755 184.514,11.975 184.514,13.586 L184.514,21.92" id="Fill-17" fill="#0A0A08"></path>
            <path d="M189.741,5.077 L189.741,9.209 L194.398,9.209 L194.398,9.454 L189.741,9.454 L189.741,21.989 C189.741,24.113 190.512,25.176 192.053,25.176 C192.589,25.176 193.097,25.053 193.576,24.809 C194.054,24.562 194.398,24.312 194.608,24.056 L194.924,23.705 L195.029,23.881 C194.912,24.044 194.743,24.248 194.521,24.493 C194.299,24.738 193.809,25.07 193.051,25.491 C192.292,25.911 191.492,26.121 190.652,26.121 C188.061,26.121 186.766,24.803 186.766,22.164 L186.766,9.454 L184.944,9.454 L184.944,9.279 C185.854,9.069 186.766,8.561 187.676,7.755 C188.586,6.95 189.217,6.058 189.566,5.077 L189.741,5.077" id="Fill-18" fill="#0A0A08"></path>
        </g>
    </g>
</svg>